<svg xmlns="http://www.w3.org/2000/svg" viewBox="0 0 456.637 456.637"><path d="M343.772 214.807l-189.1-98.002a15.19 15.19 0 00-14.909.506 15.22 15.22 0 00-7.313 13.006v196.004a15.222 15.222 0 007.313 13.007 15.187 15.187 0 0014.909.505l189.1-98.002a15.233 15.233 0 008.22-13.512 15.238 15.238 0 00-8.22-13.512z"/><path d="M228.318 0C102.223 0 0 102.223 0 228.319s102.223 228.318 228.318 228.318 228.319-102.223 228.319-228.318S354.414 0 228.318 0zm0 410.974c-100.714 0-182.655-81.933-182.655-182.655s81.94-182.654 182.655-182.654c100.714 0 182.655 81.933 182.655 182.654.001 100.722-81.94 182.655-182.655 182.655z"/></svg>